<mxfile host="Electron" modified="2023-10-06T19:43:24.153Z" agent="Mozilla/5.0 (Windows NT 10.0; Win64; x64) AppleWebKit/537.36 (KHTML, like Gecko) draw.io/22.0.0 Chrome/114.0.5735.289 Electron/25.8.3 Safari/537.36" etag="wocU9dbdUZNB4CgPsaZ5" version="22.0.0" type="device">
  <diagram name="Page-1" id="LWGpW9QxADvkEkauJwtM">
    <mxGraphModel dx="2002" dy="677" grid="1" gridSize="10" guides="1" tooltips="1" connect="1" arrows="1" fold="1" page="1" pageScale="1" pageWidth="850" pageHeight="1100" math="0" shadow="0">
      <root>
        <mxCell id="0" />
        <mxCell id="1" parent="0" />
        <mxCell id="wm27arL-cAWY_WUAhz1N-6" value="&lt;u style=&quot;border-color: var(--border-color);&quot;&gt;:Report DB&lt;/u&gt;" style="html=1;whiteSpace=wrap;" parent="1" vertex="1">
          <mxGeometry x="680" y="610" width="110" height="50" as="geometry" />
        </mxCell>
        <mxCell id="wm27arL-cAWY_WUAhz1N-1" value="Generate Report" style="shape=umlFrame;whiteSpace=wrap;html=1;pointerEvents=0;width=100;height=30;" parent="1" vertex="1">
          <mxGeometry x="-200" y="10" width="1370" height="720" as="geometry" />
        </mxCell>
        <mxCell id="wm27arL-cAWY_WUAhz1N-2" value="&lt;u style=&quot;border-color: var(--border-color);&quot;&gt;:Report UI&lt;/u&gt;" style="html=1;whiteSpace=wrap;" parent="1" vertex="1">
          <mxGeometry x="200" y="160" width="110" height="50" as="geometry" />
        </mxCell>
        <mxCell id="wm27arL-cAWY_WUAhz1N-3" value="" style="shape=umlBoundary;whiteSpace=wrap;html=1;fontSize=16;" parent="1" vertex="1">
          <mxGeometry x="290" y="170" width="10" height="10" as="geometry" />
        </mxCell>
        <mxCell id="wm27arL-cAWY_WUAhz1N-5" value="" style="ellipse;shape=umlEntity;whiteSpace=wrap;html=1;fontSize=16;" parent="1" vertex="1">
          <mxGeometry x="770" y="620" width="10" height="10" as="geometry" />
        </mxCell>
        <mxCell id="wm27arL-cAWY_WUAhz1N-44" style="rounded=0;orthogonalLoop=1;jettySize=auto;html=1;exitX=1;exitY=0.5;exitDx=0;exitDy=0;edgeStyle=orthogonalEdgeStyle;endArrow=none;endFill=0;" parent="1" source="wm27arL-cAWY_WUAhz1N-7" edge="1">
          <mxGeometry relative="1" as="geometry">
            <mxPoint x="763" y="155" as="targetPoint" />
            <Array as="points">
              <mxPoint x="820" y="180" />
              <mxPoint x="820" y="120" />
              <mxPoint x="762" y="120" />
            </Array>
          </mxGeometry>
        </mxCell>
        <mxCell id="wm27arL-cAWY_WUAhz1N-7" value="&lt;u&gt;:GenerateReport&lt;/u&gt;" style="html=1;whiteSpace=wrap;" parent="1" vertex="1">
          <mxGeometry x="680" y="155" width="110" height="50" as="geometry" />
        </mxCell>
        <mxCell id="wm27arL-cAWY_WUAhz1N-4" value="" style="ellipse;shape=umlControl;whiteSpace=wrap;html=1;fontSize=16;verticalAlign=middle;" parent="1" vertex="1">
          <mxGeometry x="690" y="160" width="12" height="10" as="geometry" />
        </mxCell>
        <mxCell id="wm27arL-cAWY_WUAhz1N-17" value="" style="line;strokeWidth=1;fillColor=none;align=left;verticalAlign=middle;spacingTop=-1;spacingLeft=3;spacingRight=3;rotatable=0;labelPosition=right;points=[];portConstraint=eastwest;strokeColor=inherit;" parent="1" vertex="1">
          <mxGeometry x="310" y="181" width="370" height="8" as="geometry" />
        </mxCell>
        <mxCell id="wm27arL-cAWY_WUAhz1N-19" value="" style="line;strokeWidth=1;fillColor=none;align=left;verticalAlign=middle;spacingTop=-1;spacingLeft=3;spacingRight=3;rotatable=0;labelPosition=right;points=[];portConstraint=eastwest;strokeColor=inherit;" parent="1" vertex="1">
          <mxGeometry x="-120" y="181" width="320" height="8" as="geometry" />
        </mxCell>
        <mxCell id="wm27arL-cAWY_WUAhz1N-20" value="&lt;b style=&quot;border-color: var(--border-color);&quot;&gt;1.0:GetReportoption()&lt;/b&gt;" style="html=1;verticalAlign=bottom;endArrow=block;curved=0;rounded=0;" parent="1" edge="1">
          <mxGeometry y="5" width="80" relative="1" as="geometry">
            <mxPoint x="3.5" y="174.37" as="sourcePoint" />
            <mxPoint x="116.5" y="174.37" as="targetPoint" />
            <mxPoint y="1" as="offset" />
          </mxGeometry>
        </mxCell>
        <mxCell id="wm27arL-cAWY_WUAhz1N-23" value="&lt;b style=&quot;border-color: var(--border-color);&quot;&gt;1.1:GetReportoption()&lt;/b&gt;" style="html=1;verticalAlign=bottom;endArrow=block;curved=0;rounded=0;" parent="1" edge="1">
          <mxGeometry x="-0.0005" y="4" width="80" relative="1" as="geometry">
            <mxPoint x="427" y="168.82" as="sourcePoint" />
            <mxPoint x="540" y="168.82" as="targetPoint" />
            <mxPoint as="offset" />
          </mxGeometry>
        </mxCell>
        <mxCell id="wm27arL-cAWY_WUAhz1N-24" value="&lt;b style=&quot;border-color: var(--border-color);&quot;&gt;&lt;b style=&quot;border-color: var(--border-color);&quot;&gt;1.2*&lt;/b&gt;[Available Report option]:&lt;font style=&quot;border-color: var(--border-color); font-weight: 400; background-color: rgb(251, 251, 251);&quot;&gt;&lt;b style=&quot;border-color: var(--border-color);&quot;&gt;Display list of&amp;nbsp;&lt;/b&gt;&lt;/font&gt;&lt;font style=&quot;border-color: var(--border-color); font-weight: 400; background-color: rgb(251, 251, 251);&quot;&gt;&lt;b style=&quot;border-color: var(--border-color);&quot;&gt;available&amp;nbsp;&lt;/b&gt;&lt;/font&gt;&lt;font style=&quot;border-color: var(--border-color); font-weight: 400; background-color: rgb(251, 251, 251);&quot;&gt;&lt;b style=&quot;border-color: var(--border-color);&quot;&gt;report option()&lt;/b&gt;&lt;/font&gt;&lt;/b&gt;" style="html=1;verticalAlign=bottom;endArrow=none;curved=0;rounded=0;startArrow=classic;startFill=1;endFill=0;" parent="1" edge="1">
          <mxGeometry x="0.1164" y="-30" width="80" relative="1" as="geometry">
            <mxPoint x="432" y="200" as="sourcePoint" />
            <mxPoint x="545" y="200" as="targetPoint" />
            <mxPoint as="offset" />
          </mxGeometry>
        </mxCell>
        <mxCell id="wm27arL-cAWY_WUAhz1N-25" value="&lt;b style=&quot;border-color: var(--border-color); font-size: 11px;&quot;&gt;2.0*[Available&lt;b style=&quot;border-color: var(--border-color);&quot;&gt;Reportoption&lt;/b&gt;]:&lt;b style=&quot;border-color: var(--border-color);&quot;&gt;SelectReportoption&lt;/b&gt;()&lt;/b&gt;" style="text;html=1;align=center;verticalAlign=middle;resizable=0;points=[];autosize=1;strokeColor=none;fillColor=none;spacing=7;spacingRight=9;spacingTop=4;spacingLeft=5;" parent="1" vertex="1">
          <mxGeometry x="-70" y="120" width="300" height="40" as="geometry" />
        </mxCell>
        <mxCell id="wm27arL-cAWY_WUAhz1N-27" value="&lt;b style=&quot;border-color: var(--border-color); font-size: 11px;&quot;&gt;2.1*[Available&lt;b style=&quot;border-color: var(--border-color);&quot;&gt;Reportoption&lt;/b&gt;]:&lt;b style=&quot;border-color: var(--border-color);&quot;&gt;SelectReportoption&lt;/b&gt;()&lt;/b&gt;" style="text;html=1;align=center;verticalAlign=middle;resizable=0;points=[];autosize=1;strokeColor=none;fillColor=none;spacing=7;spacingRight=9;spacingTop=4;spacingLeft=5;" parent="1" vertex="1">
          <mxGeometry x="350" y="118.82" width="300" height="40" as="geometry" />
        </mxCell>
        <mxCell id="wm27arL-cAWY_WUAhz1N-28" value="&lt;b style=&quot;border-color: var(--border-color); font-size: 11px;&quot;&gt;2.2*[Available&lt;b style=&quot;border-color: var(--border-color);&quot;&gt;Reportoption&lt;/b&gt;]:&lt;b style=&quot;border-color: var(--border-color);&quot;&gt;prompt admin to select criteria&lt;/b&gt;&lt;/b&gt;" style="text;html=1;align=center;verticalAlign=middle;resizable=0;points=[];autosize=1;strokeColor=none;fillColor=none;spacing=7;spacingRight=9;spacingTop=4;spacingLeft=5;" parent="1" vertex="1">
          <mxGeometry x="325" y="220" width="350" height="40" as="geometry" />
        </mxCell>
        <mxCell id="wm27arL-cAWY_WUAhz1N-29" value="&lt;b style=&quot;border-color: var(--border-color); font-size: 11px;&quot;&gt;3.0*[Available&lt;b style=&quot;border-color: var(--border-color);&quot;&gt;Reportoption&lt;/b&gt;]:&lt;b style=&quot;border-color: var(--border-color);&quot;&gt;Enter the criteria(&lt;/b&gt;&lt;b style=&quot;border-color: var(--border-color);&quot;&gt;daterange, specificusers&lt;/b&gt;)&lt;/b&gt;" style="text;html=1;align=center;verticalAlign=middle;resizable=0;points=[];autosize=1;strokeColor=none;fillColor=none;spacing=7;spacingRight=9;spacingTop=4;spacingLeft=5;" parent="1" vertex="1">
          <mxGeometry x="-125" y="100" width="410" height="40" as="geometry" />
        </mxCell>
        <mxCell id="wm27arL-cAWY_WUAhz1N-30" value="&lt;b style=&quot;border-color: var(--border-color); font-size: 11px;&quot;&gt;3.1*[Available&lt;b style=&quot;border-color: var(--border-color);&quot;&gt;Reportoption&lt;/b&gt;]:&lt;b style=&quot;border-color: var(--border-color);&quot;&gt;Enter the criteria(&lt;/b&gt;&lt;b style=&quot;border-color: var(--border-color);&quot;&gt;daterange, specificusers&lt;/b&gt;)&lt;/b&gt;" style="text;html=1;align=center;verticalAlign=middle;resizable=0;points=[];autosize=1;strokeColor=none;fillColor=none;spacing=7;spacingRight=9;spacingTop=4;spacingLeft=5;" parent="1" vertex="1">
          <mxGeometry x="310" y="100" width="410" height="40" as="geometry" />
        </mxCell>
        <mxCell id="wm27arL-cAWY_WUAhz1N-33" value="&lt;b style=&quot;border-color: var(--border-color); font-size: 11px;&quot;&gt;3.2*&lt;b style=&quot;border-color: var(--border-color);&quot;&gt;[Available Report option]&lt;/b&gt;[invalid criteria]:R&lt;/b&gt;&lt;b style=&quot;border-color: var(--border-color); font-size: 11px;&quot;&gt;e enter valid criteria&lt;/b&gt;" style="text;html=1;align=center;verticalAlign=middle;resizable=0;points=[];autosize=1;strokeColor=none;fillColor=none;spacing=7;spacingRight=9;spacingTop=4;spacingLeft=5;" parent="1" vertex="1">
          <mxGeometry x="310" y="240" width="390" height="40" as="geometry" />
        </mxCell>
        <mxCell id="wm27arL-cAWY_WUAhz1N-35" value="" style="endArrow=none;endFill=0;endSize=24;html=1;rounded=0;exitX=0.5;exitY=0;exitDx=0;exitDy=0;entryX=0.5;entryY=1;entryDx=0;entryDy=0;" parent="1" source="wm27arL-cAWY_WUAhz1N-6" target="wm27arL-cAWY_WUAhz1N-7" edge="1">
          <mxGeometry width="160" relative="1" as="geometry">
            <mxPoint x="480" y="460" as="sourcePoint" />
            <mxPoint x="740" y="200" as="targetPoint" />
          </mxGeometry>
        </mxCell>
        <mxCell id="wm27arL-cAWY_WUAhz1N-38" value="&lt;b style=&quot;border-color: var(--border-color);&quot;&gt;3.1.1*&lt;b style=&quot;border-color: var(--border-color); background-color: rgb(251, 251, 251);&quot;&gt;[Available Report option]&lt;/b&gt;[valid criteria]:&lt;b style=&quot;border-color: var(--border-color);&quot;&gt;RequirstDetails&lt;/b&gt;()&lt;/b&gt;" style="html=1;verticalAlign=bottom;endArrow=block;curved=0;rounded=0;" parent="1" edge="1">
          <mxGeometry x="0.1429" y="170" width="80" relative="1" as="geometry">
            <mxPoint x="750" y="350" as="sourcePoint" />
            <mxPoint x="750" y="490" as="targetPoint" />
            <mxPoint as="offset" />
          </mxGeometry>
        </mxCell>
        <mxCell id="wm27arL-cAWY_WUAhz1N-42" value="&lt;b style=&quot;border-color: var(--border-color);&quot;&gt;3.1.2*&lt;b style=&quot;border-color: var(--border-color); background-color: rgb(251, 251, 251);&quot;&gt;[Available Report option]&lt;/b&gt;[valid criteria]:&lt;b style=&quot;border-color: var(--border-color);&quot;&gt;ProvideDetails&lt;/b&gt;()&lt;/b&gt;" style="html=1;verticalAlign=bottom;endArrow=none;curved=0;rounded=0;endFill=0;startArrow=classic;startFill=1;" parent="1" edge="1">
          <mxGeometry y="-160" width="80" relative="1" as="geometry">
            <mxPoint x="720" y="350" as="sourcePoint" />
            <mxPoint x="720" y="490" as="targetPoint" />
            <mxPoint as="offset" />
          </mxGeometry>
        </mxCell>
        <mxCell id="wm27arL-cAWY_WUAhz1N-45" value="&lt;b style=&quot;border-color: var(--border-color); font-size: 11px;&quot;&gt;3.1.1*&lt;b style=&quot;border-color: var(--border-color);&quot;&gt;[Available Report option]&lt;/b&gt;[valid criteria]:&lt;b style=&quot;border-color: var(--border-color); font-size: 12px; text-align: left;&quot;&gt;Valide Criteria()&lt;/b&gt;&lt;br&gt;&lt;br&gt;&lt;/b&gt;" style="text;html=1;align=center;verticalAlign=middle;resizable=0;points=[];autosize=1;strokeColor=none;fillColor=none;" parent="1" vertex="1">
          <mxGeometry x="810" y="120" width="350" height="40" as="geometry" />
        </mxCell>
        <mxCell id="wm27arL-cAWY_WUAhz1N-46" value="&lt;b style=&quot;border-color: var(--border-color); font-size: 11px;&quot;&gt;3.1.4 *&lt;b style=&quot;border-color: var(--border-color);&quot;&gt;[Available Report option]&lt;/b&gt;&lt;b style=&quot;border-color: var(--border-color);&quot;&gt;&lt;b style=&quot;border-color: var(--border-color);&quot;&gt;&lt;b style=&quot;border-color: var(--border-color);&quot;&gt;[valid criteria]&lt;/b&gt;&lt;/b&gt;&lt;/b&gt;| | [ ]:&lt;b style=&quot;border-color: var(--border-color);&quot;&gt;SaveGeneratereport&lt;/b&gt;()&lt;/b&gt;" style="text;html=1;align=center;verticalAlign=middle;resizable=0;points=[];autosize=1;strokeColor=none;fillColor=none;" parent="1" vertex="1">
          <mxGeometry x="740" y="430" width="400" height="30" as="geometry" />
        </mxCell>
        <mxCell id="wm27arL-cAWY_WUAhz1N-47" value="&lt;b style=&quot;border-color: var(--border-color); font-size: 11px;&quot;&gt;3.2*&lt;b style=&quot;border-color: var(--border-color);&quot;&gt;[Available Report option]&lt;/b&gt;&lt;b style=&quot;border-color: var(--border-color);&quot;&gt;&lt;b style=&quot;border-color: var(--border-color);&quot;&gt;[valid criteria]&lt;/b&gt;&lt;/b&gt;||[ ]:&lt;b style=&quot;border-color: var(--border-color);&quot;&gt;DisplayGenerateReport(&lt;/b&gt;&lt;b style=&quot;border-color: var(--border-color);&quot;&gt;Details&lt;/b&gt;&lt;b style=&quot;border-color: var(--border-color);&quot;&gt;)&lt;/b&gt;&lt;/b&gt;" style="text;html=1;align=center;verticalAlign=middle;resizable=0;points=[];autosize=1;strokeColor=none;fillColor=none;" parent="1" vertex="1">
          <mxGeometry x="285" y="270" width="430" height="30" as="geometry" />
        </mxCell>
        <mxCell id="wm27arL-cAWY_WUAhz1N-49" value="&lt;b style=&quot;border-color: var(--border-color); font-size: 11px;&quot;&gt;&lt;b style=&quot;border-color: var(--border-color);&quot;&gt;5.0&lt;/b&gt;[if want download report]:&lt;/b&gt;&lt;b style=&quot;border-color: var(--border-color); font-size: 11px;&quot;&gt;download report()&lt;/b&gt;" style="text;html=1;align=center;verticalAlign=middle;resizable=0;points=[];autosize=1;strokeColor=none;fillColor=none;" parent="1" vertex="1">
          <mxGeometry x="-80" y="70" width="270" height="30" as="geometry" />
        </mxCell>
        <mxCell id="wm27arL-cAWY_WUAhz1N-50" value="&lt;b style=&quot;border-color: var(--border-color); font-size: 11px;&quot;&gt;3.3*[Available Report option]:&lt;/b&gt;&lt;b style=&quot;border-color: var(--border-color); font-size: 11px;&quot;&gt;DisplaySelectanother report option&lt;/b&gt;" style="text;html=1;align=center;verticalAlign=middle;resizable=0;points=[];autosize=1;strokeColor=none;fillColor=none;spacing=7;spacingRight=9;spacingTop=4;spacingLeft=5;" parent="1" vertex="1">
          <mxGeometry x="310" y="280" width="380" height="40" as="geometry" />
        </mxCell>
        <mxCell id="wm27arL-cAWY_WUAhz1N-51" value="&lt;b style=&quot;border-color: var(--border-color); font-size: 11px;&quot;&gt;4.2*&lt;b style=&quot;border-color: var(--border-color);&quot;&gt;[Available Report option]&lt;/b&gt;[if exit the report generation process][break]:&lt;/b&gt;&lt;b style=&quot;border-color: var(--border-color); font-size: 11px; background-color: rgb(255, 255, 255);&quot;&gt;Display report has been generated and saved&lt;/b&gt;" style="text;html=1;align=center;verticalAlign=middle;resizable=0;points=[];autosize=1;strokeColor=none;fillColor=none;spacing=7;spacingRight=9;spacingTop=4;spacingLeft=5;" parent="1" vertex="1">
          <mxGeometry x="150" y="300" width="670" height="40" as="geometry" />
        </mxCell>
        <mxCell id="wm27arL-cAWY_WUAhz1N-59" value="&lt;b style=&quot;border-color: var(--border-color); font-size: 11px;&quot;&gt;&lt;b style=&quot;border-color: var(--border-color);&quot;&gt;4.1*&lt;b style=&quot;border-color: var(--border-color);&quot;&gt;[Available Report option]&lt;/b&gt;[if exit the report generation process][break]:&lt;/b&gt;select exit button()&lt;/b&gt;" style="text;html=1;align=center;verticalAlign=middle;resizable=0;points=[];autosize=1;strokeColor=none;fillColor=none;" parent="1" vertex="1">
          <mxGeometry x="280" y="88.82" width="510" height="30" as="geometry" />
        </mxCell>
        <mxCell id="wm27arL-cAWY_WUAhz1N-60" value="&lt;b style=&quot;border-color: var(--border-color); font-size: 11px;&quot;&gt;4.0*&lt;b style=&quot;border-color: var(--border-color);&quot;&gt;[Available Report option]&lt;/b&gt;[if exit the report generation process][break]&lt;/b&gt;&lt;b style=&quot;border-color: var(--border-color); font-size: 11px;&quot;&gt;&lt;b style=&quot;border-color: var(--border-color);&quot;&gt;:&lt;/b&gt;select exit button()&lt;/b&gt;" style="text;html=1;align=center;verticalAlign=middle;resizable=0;points=[];autosize=1;strokeColor=none;fillColor=none;" parent="1" vertex="1">
          <mxGeometry x="-210" y="88.82" width="510" height="30" as="geometry" />
        </mxCell>
        <mxCell id="wm27arL-cAWY_WUAhz1N-65" value="Admin" style="shape=umlActor;verticalLabelPosition=bottom;verticalAlign=top;html=1;" parent="1" vertex="1">
          <mxGeometry x="-155" y="155" width="30" height="60" as="geometry" />
        </mxCell>
        <mxCell id="dKI-VHXKmT2Ko6vPI4ke-1" value="&lt;b style=&quot;border-color: var(--border-color); font-size: 11px;&quot;&gt;&lt;b style=&quot;border-color: var(--border-color);&quot;&gt;5.1&lt;/b&gt;[if want download report]:&lt;/b&gt;&lt;b style=&quot;border-color: var(--border-color); font-size: 11px;&quot;&gt;Requests&amp;nbsp;&lt;/b&gt;&lt;b style=&quot;border-color: var(--border-color); font-size: 11px;&quot;&gt;download reports()&lt;/b&gt;" style="text;html=1;align=center;verticalAlign=middle;resizable=0;points=[];autosize=1;strokeColor=none;fillColor=none;" parent="1" vertex="1">
          <mxGeometry x="325" y="70" width="330" height="30" as="geometry" />
        </mxCell>
        <mxCell id="dKI-VHXKmT2Ko6vPI4ke-5" value="&lt;b style=&quot;border-color: var(--border-color); font-size: 11px;&quot;&gt;&lt;b style=&quot;border-color: var(--border-color);&quot;&gt;5.1.1&lt;/b&gt;[if want download report]:&lt;/b&gt;&lt;b style=&quot;border-color: var(--border-color); font-size: 11px;&quot;&gt;Requests&amp;nbsp;&lt;/b&gt;&lt;b style=&quot;border-color: var(--border-color); font-size: 11px;&quot;&gt;download reports()&lt;/b&gt;" style="text;html=1;align=center;verticalAlign=middle;resizable=0;points=[];autosize=1;strokeColor=none;fillColor=none;" parent="1" vertex="1">
          <mxGeometry x="740" y="380" width="340" height="30" as="geometry" />
        </mxCell>
        <mxCell id="dKI-VHXKmT2Ko6vPI4ke-6" value="&lt;b style=&quot;border-color: var(--border-color); font-size: 11px;&quot;&gt;&lt;b style=&quot;border-color: var(--border-color);&quot;&gt;5.1.2&lt;/b&gt;[if want download report]:provide&lt;/b&gt;&lt;b style=&quot;border-color: var(--border-color); font-size: 11px;&quot;&gt;download report()&lt;/b&gt;" style="text;html=1;align=center;verticalAlign=middle;resizable=0;points=[];autosize=1;strokeColor=none;fillColor=none;" parent="1" vertex="1">
          <mxGeometry x="415" y="420" width="320" height="30" as="geometry" />
        </mxCell>
        <mxCell id="dKI-VHXKmT2Ko6vPI4ke-7" value="&lt;b style=&quot;border-color: var(--border-color); font-size: 11px;&quot;&gt;&lt;b style=&quot;border-color: var(--border-color);&quot;&gt;5.2&lt;/b&gt;[if want download report]:provide&lt;/b&gt;&lt;b style=&quot;border-color: var(--border-color); font-size: 11px;&quot;&gt;download report()&lt;/b&gt;" style="text;html=1;align=center;verticalAlign=middle;resizable=0;points=[];autosize=1;strokeColor=none;fillColor=none;" parent="1" vertex="1">
          <mxGeometry x="330" y="330" width="310" height="30" as="geometry" />
        </mxCell>
      </root>
    </mxGraphModel>
  </diagram>
</mxfile>
